<svg xmlns="http://www.w3.org/2000/svg" width="48" height="32" viewBox="0 0 48 32">
    <path d="M4 .5h40c1.92 0 3.5 1.58 3.5 3.5v24c0 1.92-1.58 3.5-3.5 3.5H4A3.51 3.51 0 0 1 .5 28V4C.5 2.08 2.08.5 4 .5Z" fill="#fff" stroke="#D8DADF" />
    <path d="M14.82 27.06V25.6c0-.57-.35-.94-.92-.94a1 1 0 0 0-.84.41.85.85 0 0 0-.79-.41.84.84 0 0 0-.71.35v-.3h-.47v2.36h.47v-1.35c0-.42.25-.61.59-.61.35 0 .54.22.54.61v1.35h.47v-1.35c0-.42.24-.61.59-.61.34 0 .54.22.54.61v1.35h.53Zm7.68-2.34h-.86v-.71h-.47v.71h-.49v.42h.5v1.11c0 .54.2.86.78.86.23 0 .44-.06.64-.17l-.15-.42a.84.84 0 0 1-.44.13c-.25 0-.37-.15-.37-.4v-1.12h.87v-.4Zm4.39-.07c-.26 0-.5.12-.64.35v-.3h-.47v2.36h.47v-1.32c0-.4.2-.64.52-.64.1 0 .21.01.32.05l.15-.45a1.31 1.31 0 0 0-.35-.05Zm-6.63.25a1.69 1.69 0 0 0-.96-.25c-.6 0-.97.27-.97.74 0 .39.28.61.8.69l.24.02c.27.05.44.15.44.27 0 .18-.2.3-.56.3a1.3 1.3 0 0 1-.8-.25l-.24.37c.35.25.76.3 1.01.3.7 0 1.06-.32 1.06-.77 0-.41-.3-.61-.81-.68l-.25-.03c-.22-.02-.42-.1-.42-.25 0-.17.2-.3.47-.3.3 0 .6.13.74.2l.25-.36Zm7.15.98c0 .71.47 1.23 1.23 1.23.35 0 .6-.08.84-.28l-.25-.36a.97.97 0 0 1-.61.22c-.42 0-.74-.32-.74-.79 0-.46.31-.79.74-.79.22 0 .44.09.61.23l.25-.37c-.25-.2-.49-.27-.84-.27-.74-.05-1.23.47-1.23 1.18Zm-3.3-1.23c-.7 0-1.16.49-1.16 1.23s.5 1.23 1.2 1.23c.35 0 .7-.1.97-.33l-.25-.34c-.2.15-.44.24-.69.25a.7.7 0 0 1-.71-.62h1.75v-.2c0-.73-.45-1.22-1.11-1.22Zm-.03.45c.35 0 .6.22.62.59h-1.28c.07-.35.3-.6.66-.6Zm-6.38.78V24.7h-.47v.3a.9.9 0 0 0-.76-.35c-.67 0-1.16.51-1.16 1.23 0 .71.5 1.23 1.16 1.23a.9.9 0 0 0 .76-.35v.3h.47v-1.18Zm-1.9 0c0-.44.27-.8.74-.8.44 0 .71.36.71.8 0 .46-.3.79-.71.79-.47.02-.74-.35-.74-.8Zm18.22-1.23c-.26 0-.5.12-.64.35v-.3h-.47v2.36h.47v-1.32c0-.4.2-.64.51-.64.1 0 .22.01.33.05l.15-.45a1.4 1.4 0 0 0-.35-.05Zm-1.83 1.23V24.7h-.47v.3a.9.9 0 0 0-.76-.35c-.66 0-1.16.51-1.16 1.23 0 .71.5 1.23 1.16 1.23a.9.9 0 0 0 .76-.35v.3h.47v-1.18Zm-1.9 0c0-.44.28-.8.74-.8.45 0 .72.36.72.8 0 .46-.3.79-.72.79-.47.02-.73-.35-.73-.8Zm6.66 0v-2.12h-.47V25a.9.9 0 0 0-.76-.35c-.66 0-1.16.52-1.16 1.23 0 .72.5 1.23 1.16 1.23a.9.9 0 0 0 .76-.35v.3h.47v-1.17Zm-1.9 0c0-.44.27-.8.74-.8.44 0 .71.36.71.8 0 .46-.3.79-.71.79-.47.02-.74-.35-.74-.8Z" />
    <path d="M28.27 6.77h-8.55V20.7h8.55V6.77Z" fill="#FF5F00" />
    <path d="M20.58 13.74a8.9 8.9 0 0 1 3.38-6.97A8.88 8.88 0 0 0 12.99 20.7a8.88 8.88 0 0 0 10.97 0 8.88 8.88 0 0 1-3.38-6.97Z" fill="#EB001B" />
    <path d="M38.33 13.74a8.86 8.86 0 0 1-14.35 6.97 8.88 8.88 0 0 0 0-13.94 8.87 8.87 0 0 1 14.35 6.97Z" fill="#F79E1B" />
</svg>