<svg xmlns="http://www.w3.org/2000/svg" width="48" height="32" viewBox="0 0 48 32">
    <path d="M.5 4C.5 2.08 2.08.5 4 .5h40c1.92 0 3.5 1.58 3.5 3.5v24c0 1.92-1.58 3.5-3.5 3.5H4A3.51 3.51 0 0 1 .5 28V4Z" fill="#fff" stroke="#D8DADF" />
    <path fill-rule="evenodd" clip-rule="evenodd"
          d="m35.78 22.27-.8 5.08c-.01.1.06.19.16.19h.8c.14 0 .25-.1.27-.23l.79-4.99a.16.16 0 0 0-.16-.18h-.9a.16.16 0 0 0-.16.13Zm-1.1 1.67h-.93a.16.16 0 0 0-.16.13l-.04.26-.06-.1c-.2-.28-.65-.38-1.1-.38-1.03 0-1.91.78-2.08 1.87-.1.55.04 1.07.34 1.43.29.34.7.48 1.18.48.83 0 1.29-.54 1.29-.54l-.04.26c-.02.1.06.19.16.19h.83c.14 0 .25-.1.27-.23l.5-3.19a.16.16 0 0 0-.16-.18Zm-1.3 1.8c-.08.54-.5.9-1.04.9-.28 0-.5-.09-.63-.25a.8.8 0 0 1-.15-.66c.09-.52.52-.9 1.05-.9.26 0 .48.1.62.26.14.17.2.4.16.66Zm-6.45-3.6h1.94c.65 0 1.14.17 1.42.5.25.29.33.71.25 1.25-.2 1.23-.94 1.85-2.22 1.85h-.61c-.14 0-.25.1-.27.23l-.22 1.41a.2.2 0 0 1-.19.16h-1a.16.16 0 0 1-.16-.19l.79-4.98a.27.27 0 0 1 .27-.23Zm1.01 2.52c.52 0 1.05 0 1.16-.7.03-.25 0-.42-.1-.54-.17-.2-.5-.2-.85-.2H28a.16.16 0 0 0-.16.13l-.2 1.3h.3Z"
          fill="#009BDE" />
    <path fill-rule="evenodd" clip-rule="evenodd"
          d="M13.06 22.14H15c.65 0 1.14.17 1.42.5.25.3.33.71.25 1.25-.2 1.23-.94 1.85-2.22 1.85h-.61c-.14 0-.25.1-.27.23l-.21 1.34a.27.27 0 0 1-.27.23h-.93a.16.16 0 0 1-.16-.19l.79-4.98a.27.27 0 0 1 .27-.23Zm1.01 2.52c.52 0 1.05 0 1.15-.7.04-.25.01-.42-.09-.54-.17-.2-.5-.2-.85-.2h-.14a.16.16 0 0 0-.16.13l-.2 1.3h.29Zm6.74-.72h-.93a.16.16 0 0 0-.16.13l-.04.26-.06-.1c-.2-.28-.66-.38-1.1-.38-1.03 0-1.91.78-2.08 1.87-.1.55.03 1.07.34 1.43.29.34.7.48 1.18.48.83 0 1.29-.54 1.29-.54l-.05.26c-.01.1.06.19.16.19h.84c.14 0 .25-.1.27-.23l.5-3.19a.16.16 0 0 0-.16-.18Zm-1.3 1.8c-.08.54-.5.9-1.05.9a.79.79 0 0 1-.62-.25.8.8 0 0 1-.15-.66c.09-.52.52-.9 1.05-.9.26 0 .48.1.62.26.14.17.2.4.16.66Zm6.26-1.8h-.93a.27.27 0 0 0-.23.11l-1.29 1.9-.55-1.82a.27.27 0 0 0-.25-.2h-.92c-.12 0-.2.12-.16.22l1.03 3.03-.97 1.36c-.07.11 0 .26.14.26h.93c.09 0 .17-.04.22-.12l3.12-4.49c.07-.1 0-.25-.14-.25Z"
          fill="#002F87" />
    <path d="M30.7 8.15c.2-1.27 0-2.14-.7-2.92C29.26 4.37 27.89 4 26.14 4h-5.07a.73.73 0 0 0-.72.61l-2.11 13.4c-.04.27.16.5.43.5h3.13l-.21 1.38c-.04.23.14.44.37.44h2.64c.32 0 .58-.23.63-.54l.03-.13.5-3.16.03-.17a.63.63 0 0 1 .62-.54h.4c2.56 0 4.56-1.04 5.14-4.04.25-1.26.12-2.3-.52-3.04a2.4 2.4 0 0 0-.73-.56Z"
          fill="#009BDE" />
    <path d="M30.7 8.15c.2-1.27 0-2.14-.7-2.92C29.26 4.37 27.89 4 26.14 4h-5.07a.73.73 0 0 0-.72.61l-2.11 13.4c-.04.27.16.5.43.5h3.13l.79-4.98-.03.15a.72.72 0 0 1 .72-.61h1.49c2.92 0 5.21-1.19 5.88-4.62l.05-.3Z"
          fill="#022169" />
    <path d="M23.43 8.17a.63.63 0 0 1 .62-.54h3.98a8.29 8.29 0 0 1 1.96.24 4.2 4.2 0 0 1 .7.28c.2-1.27 0-2.14-.68-2.92C29.25 4.37 27.88 4 26.13 4h-5.07a.73.73 0 0 0-.72.61l-2.11 13.4c-.04.27.16.5.43.5h3.13l.79-4.98.85-5.36Z"
          fill="#002F87" />
</svg>