<svg xmlns="http://www.w3.org/2000/svg" width="48" height="32" viewBox="0 0 48 32">
    <path d="M.5 4C.5 2.08 2.08.5 4 .5h40c1.92 0 3.5 1.58 3.5 3.5v24c0 1.92-1.58 3.5-3.5 3.5H4A3.51 3.51 0 0 1 .5 28V4Z" fill="#fff" stroke="#D8DADF" />
    <path d="M29.05 11c1.02 0 1.84.2 2.37.4l-.36 2.1-.24-.1a4.84 4.84 0 0 0-1.98-.38c-1.04 0-1.52.43-1.52.83 0 .46.57.76 1.5 1.21 1.52.7 2.23 1.54 2.22 2.64-.02 2.02-1.83 3.33-4.62 3.33a8.32 8.32 0 0 1-2.95-.52l.37-2.18.34.16c.87.36 1.44.5 2.5.5.76 0 1.58-.29 1.58-.94.01-.43-.34-.73-1.37-1.2-1.01-.47-2.34-1.25-2.33-2.65.02-1.89 1.87-3.2 4.49-3.2Zm-5.55.19-1.66 9.72H19.2l1.66-9.72h2.65Zm14.75 0 2.14 9.71h-2.46l-.32-1.45h-3.4l-.23.6-.02.06-.3.8h-2.79l3.94-8.92c.28-.63.75-.8 1.39-.8h2.05Zm-18.5 0-4.18 9.7h-2.8l-2.38-8.5a7.56 7.56 0 0 1 3.67 4.08l.28 1.35 2.6-6.63h2.81Zm16.66 2.63-.1.29-.03.04v.02l-.02.05c-.11.29-.22.55-.2.53l-.54 1.37-.03.08-.5 1.27h2.21l-.61-2.8-.18-.85Z"
          fill="#0E4595" />
    <path d="M11.92 11.19H7.64l-.03.2c3.32.8 5.52 2.75 6.44 5.09L13.12 12c-.16-.61-.63-.8-1.2-.82Z" fill="#F2AE14" />
</svg>